<?xml version="1.0" encoding="UTF-8" standalone="no"?>
<svg width="512px" height="154px" viewBox="0 0 512 154" version="1.1" xmlns="http://www.w3.org/2000/svg" xmlns:xlink="http://www.w3.org/1999/xlink">
    <!-- Generator: Sketch 43.2 (39069) - http://www.bohemiancoding.com/sketch -->
    <title>XMLID_93_</title>
    <desc>Created with Sketch.</desc>
    <defs></defs>
    <g id="Page-1" stroke="none" stroke-width="1" fill="none" fill-rule="evenodd">
        <g id="Marca-Sentisis-White" fill-rule="nonzero" fill="#FFFFFF">
            <g id="XMLID_93_">
                <path d="M188.6,69.6 C183.4,67.5 178.8,65.7 178.8,61.9 C178.8,58.4 182,56 186.7,56 C192.5,56 196.7,58.2 198.9,59.6 C199.2,59.8 199.6,59.7 199.8,59.4 L203.3,52.5 C203.4,52.2 203.4,51.9 203.1,51.7 C201,50 195.6,46.7 186.8,46.7 C175.2,46.7 167.4,52.6 167.4,61.4 C167.4,70.9 175.9,74.4 183.4,77.5 C188.8,79.7 193.4,81.6 193.4,85.5 C193.4,89 190.1,91.4 185.3,91.4 C178.8,91.4 173.7,88.2 171.4,86.5 C171.1,86.3 170.7,86.4 170.5,86.7 L166.2,93.3 C166,93.6 166.1,93.9 166.3,94.1 C168.8,96.2 175.3,100.7 185.3,100.7 C196.8,100.7 204.7,94.5 204.7,85.7 C204.9,76.2 195.9,72.5 188.6,69.6" id="XMLID_121_"></path>
                <path d="M304.1,46.3 C292,46.3 286.8,54.6 285.5,57.2 L285.5,48.7 C285.5,48.1 285,47.6 284.4,47.6 L273.9,47.6 C273.3,47.6 272.8,48.1 272.8,48.7 L272.8,99 C272.8,99.6 273.3,100.1 273.9,100.1 L283.9,100.1 C284.5,100.1 285,99.6 285,99 L285,76.1 C285,73.1 285.3,70.8 286,68.8 C288.2,61.8 293.9,57.5 300.9,57.5 C308.9,57.5 309.9,63.6 309.9,69 L309.9,99 C309.9,99.6 310.4,100.1 311,100.1 L320.9,100.1 C321.5,100.1 322,99.6 322,99 L322,66.2 C322.2,52.8 316.3,46.3 304.1,46.3" id="XMLID_120_"></path>
                <path d="M386.7,47.6 L375.7,47.6 C375.4,47.6 375.1,47.9 375.1,48.2 L375.1,99.5 C375.1,99.8 375.4,100.1 375.7,100.1 L386.7,100.1 C387,100.1 387.3,99.8 387.3,99.5 L387.3,48.2 C387.3,47.9 387,47.6 386.7,47.6" id="XMLID_119_"></path>
                <path d="M375.6,37.4 L386.5,37.4 C386.8,37.4 387.1,37.1 387.1,36.8 L387.1,27.2 C387.1,26.9 386.8,26.6 386.5,26.6 L375.6,26.6 C375.3,26.6 375,26.9 375,27.2 L375,36.8 C375,37.1 375.3,37.4 375.6,37.4" id="XMLID_118_"></path>
                <path d="M420.9,69.6 C415.7,67.5 411.1,65.7 411.1,61.9 C411.1,58.4 414.3,56 419,56 C424.8,56 429,58.2 431.2,59.6 C431.5,59.8 431.9,59.7 432.1,59.4 L435.6,52.5 C435.7,52.2 435.7,51.9 435.4,51.7 C433.3,50 427.9,46.7 419.1,46.7 C407.5,46.7 399.7,52.6 399.7,61.4 C399.7,70.9 408.2,74.4 415.7,77.5 C421.1,79.7 425.7,81.6 425.7,85.5 C425.7,89 422.4,91.4 417.6,91.4 C411.1,91.4 406.2,88.4 403.7,86.5 C403.4,86.3 403,86.4 402.8,86.7 L398.5,93.3 C398.3,93.6 398.4,93.9 398.6,94.1 C401.1,96.2 407.6,100.7 417.6,100.7 C429.1,100.7 437,94.5 437,85.7 C437.2,76.2 428.2,72.5 420.9,69.6" id="XMLID_117_"></path>
                <path d="M449.6,37.4 L460.5,37.4 C460.8,37.4 461.1,37.1 461.1,36.8 L461.1,27.2 C461.1,26.9 460.8,26.6 460.5,26.6 L449.6,26.6 C449.3,26.6 449,26.9 449,27.2 L449,36.8 C449,37.1 449.3,37.4 449.6,37.4" id="XMLID_116_"></path>
                <path d="M460.7,47.6 L449.7,47.6 C449.4,47.6 449.1,47.9 449.1,48.2 L449.1,99.5 C449.1,99.8 449.4,100.1 449.7,100.1 L460.7,100.1 C461,100.1 461.3,99.8 461.3,99.5 L461.3,48.2 C461.3,47.9 461,47.6 460.7,47.6" id="XMLID_115_"></path>
                <path d="M495,69.6 C489.8,67.5 485.2,65.7 485.2,61.9 C485.2,58.4 488.4,56 493.1,56 C498.9,56 503.1,58.2 505.3,59.6 C505.6,59.8 506,59.7 506.2,59.4 L509.7,52.5 C509.8,52.2 509.8,51.9 509.5,51.7 C507.4,50 502,46.7 493.2,46.7 C481.6,46.7 473.8,52.6 473.8,61.4 C473.8,70.9 482.3,74.4 489.8,77.5 C495.2,79.7 499.8,81.6 499.8,85.5 C499.8,89 496.5,91.4 491.7,91.4 C485.2,91.4 480.1,88.2 477.8,86.5 C477.5,86.3 477.1,86.4 476.9,86.7 L472.6,93.3 C472.4,93.6 472.5,93.9 472.7,94.1 C475.2,96.2 481.7,100.7 491.7,100.7 C503.2,100.7 511.1,94.5 511.1,85.7 C511.2,76.2 502.2,72.5 495,69.6" id="XMLID_114_"></path>
                <path d="M349.5,79.3 L349.5,58.5 L349.5,57.5 L350.5,57.5 L361,57.5 C361.3,57.5 361.6,57.2 361.6,56.9 L361.6,49.6 C361.6,49.3 361.3,49 361,49 L350.5,49 L349.5,49 L349.5,48 L349.5,28 C349.5,27.6 349.1,27.3 348.7,27.4 L339,30 C338.7,30.1 338.5,30.3 338.5,30.6 L338.5,47.9 L338.5,48.9 L337.5,48.9 L332,48.9 C331.7,48.9 331.4,49.2 331.4,49.5 L331.4,56.8 C331.4,57.1 331.7,57.4 332,57.4 L337.3,57.4 L338.3,57.4 L338.3,58.4 L338.3,81 C338.3,97.6 351.6,100.1 359.5,100.1 C360.5,100.1 361.4,100 362,100 C362.3,100 362.6,99.7 362.6,99.4 L362.6,91.1 C362.6,90.8 362.3,90.5 362,90.5 C357.6,90.4 349.5,89.2 349.5,79.3" id="XMLID_113_"></path>
                <path d="M239.3,46.8 C223.9,46.8 213.1,57.9 213.1,73.8 C213.1,89.5 224.8,100.8 240.8,100.8 C251,100.8 258.2,96.1 260.6,94.3 C260.8,94.1 260.9,93.8 260.8,93.5 L257.2,86.9 C257,86.6 256.6,86.5 256.3,86.7 C253.8,88.4 248.2,91.6 241.7,91.6 C234.1,91.6 225.9,87.1 224.7,77.2 L224.7,75.9 C224.7,75.6 225,75.3 225.3,75.3 L226.4,75.3 L261.2,75.3 C261.5,75.3 261.8,75.1 261.8,74.7 C261.9,73.6 262,72 262,71.2 C262,56.4 253.1,46.8 239.3,46.8 L239.3,46.8 Z M225.9,67.7 C225.5,67.7 225.2,67.3 225.3,66.9 C226.9,59.8 231.9,55.5 239.1,55.5 C245.3,55.5 250.2,59.5 250.6,67 C250.6,67.4 250.3,67.7 250,67.7 L225.9,67.7 Z" id="XMLID_100_"></path>
                <path d="M240.3,28.3 L234.6,38.6 C234.4,39 234.7,39.5 235.1,39.5 L243.3,39.5 C243.5,39.5 243.7,39.4 243.8,39.3 L252,29 C252.3,28.6 252,28 251.5,28 L240.8,28 C240.7,28 240.5,28.1 240.3,28.3" id="XMLID_99_"></path>
                <g id="XMLID_94_">
                    <path d="M63,0.4 L123.7,0.4 C124.6,0.4 125.3,1.1 125.3,2 L125.3,62.7 L63,0.4 Z" id="Fill-1_1_" opacity="0.9"></path>
                    <path d="M1.2,0.8 L63,62.6 L63,124.9 L0.7,62.6 L0.7,1.9 C0.8,1.9 0.7,1.3 1.2,0.8" id="Fill-3_1_" opacity="0.35"></path>
                    <path d="M0.8,62.6 L0.8,123.3 C0.8,124.2 1.5,124.9 2.4,124.9 L63,124.9 L0.8,62.6 Z" id="Fill-6_1_" opacity="0.2"></path>
                    <path d="M125.3,152 L125.3,62.6 L63,62.6 L63,124.9 L93.5,124.9 C93.9,124.9 94.3,125.1 94.6,125.4 L122.5,153.2 C123.6,154.2 125.3,153.5 125.3,152" id="Fill-8_1_" opacity="0.6"></path>
                    <path d="M1.2,0.8 L63,62.6 L125.3,62.6 L63,0.4 L2.3,0.4 C2.3,0.4 1.7,0.3 1.2,0.8" id="Fill-10_1_" opacity="0.8"></path>
                </g>
            </g>
        </g>
    </g>
</svg>